<svg width="24" height="22" viewBox="0 0 24 22" fill="none" xmlns="http://www.w3.org/2000/svg">
<ellipse cx="10" cy="5.83331" rx="2.5" ry="2.5" stroke="#58B9FF" stroke-width="1.5"/>
<ellipse cx="3.33329" cy="8.33335" rx="1.66667" ry="1.66667" stroke="#58B9FF" stroke-width="1.5"/>
<ellipse cx="16.6667" cy="8.33335" rx="1.66667" ry="1.66667" stroke="#58B9FF" stroke-width="1.5"/>
<path d="M5.83337 15C5.83337 12.6988 7.69885 10.8333 10 10.8333V10.8333C12.3012 10.8333 14.1667 12.6988 14.1667 15V16.6666H5.83337V15Z" stroke="#58B9FF" stroke-width="1.5"/>
<path d="M6.06129 13.6374L6.77008 13.8825L6.9024 13.5L6.65525 13.1794L6.06129 13.6374ZM5.83337 16.6667V17.4167H6.58337V16.6667H5.83337ZM0.833374 16.6667H0.083374V17.4167H0.833374V16.6667ZM6.58337 15C6.58337 14.6074 6.6493 14.2317 6.77008 13.8825L5.35249 13.3922C5.17789 13.897 5.08337 14.4382 5.08337 15H6.58337ZM6.58337 16.6667V15H5.08337V16.6667H6.58337ZM5.83337 15.9167H5.41671V17.4167H5.83337V15.9167ZM5.41671 15.9167H0.833374V17.4167H5.41671V15.9167ZM1.58337 16.6667V15.4167H0.083374V16.6667H1.58337ZM1.58337 15.4167C1.58337 14.2201 2.55342 13.25 3.75004 13.25V11.75C1.725 11.75 0.083374 13.3916 0.083374 15.4167H1.58337ZM3.75004 13.25C4.44865 13.25 5.06989 13.5798 5.46732 14.0953L6.65525 13.1794C5.98605 12.3114 4.93345 11.75 3.75004 11.75V13.25Z" fill="#58B9FF"/>
<path d="M13.9387 13.6374L13.2299 13.8825L13.0976 13.5L13.3447 13.1794L13.9387 13.6374ZM14.1666 16.6667V17.4167H13.4166V16.6667H14.1666ZM19.1666 16.6667H19.9166V17.4167H19.1666V16.6667ZM13.4166 15C13.4166 14.6074 13.3507 14.2317 13.2299 13.8825L14.6475 13.3922C14.8221 13.897 14.9166 14.4382 14.9166 15H13.4166ZM13.4166 16.6667V15H14.9166V16.6667H13.4166ZM14.1666 15.9167H14.5833V17.4167H14.1666V15.9167ZM14.5833 15.9167H19.1666V17.4167H14.5833V15.9167ZM18.4166 16.6667V15.4167H19.9166V16.6667H18.4166ZM18.4166 15.4167C18.4166 14.22 17.4466 13.25 16.25 13.25V11.75C18.275 11.75 19.9166 13.3916 19.9166 15.4167H18.4166ZM16.25 13.25C15.5514 13.25 14.9301 13.5798 14.5327 14.0953L13.3447 13.1794C14.0139 12.3114 15.0666 11.75 16.25 11.75V13.25Z" fill="#58B9FF"/>
<circle cx="20" cy="18" r="4" fill="white"/>
<path d="M20 15V21" stroke="#58B9FF" stroke-width="1.5" stroke-linecap="round" stroke-linejoin="round"/>
<path d="M17 18H23" stroke="#58B9FF" stroke-width="1.5" stroke-linecap="round" stroke-linejoin="round"/>
</svg>
