<svg width="24" height="20" viewBox="0 0 24 20" fill="none" xmlns="http://www.w3.org/2000/svg">
<ellipse cx="5.83337" cy="5" rx="2.5" ry="2.5" stroke="#58B9FF" stroke-width="1.5"/>
<ellipse cx="13.75" cy="7.08333" rx="2.08333" ry="2.08333" stroke="#58B9FF" stroke-width="1.5"/>
<path d="M0.833374 15C0.833374 12.2386 3.07195 10 5.83337 10V10C8.5948 10 10.8334 12.2386 10.8334 15V16.6667H0.833374V15Z" stroke="#58B9FF" stroke-width="1.5"/>
<path d="M10.4479 13.0715L9.75603 13.3609L9.5658 12.9063L9.90762 12.5513L10.4479 13.0715ZM10.8334 16.6666L10.8334 17.4166L10.0834 17.4166V16.6666H10.8334ZM11.131 16.6666V17.4166H11.131L11.131 16.6666ZM18.3334 16.6666H19.0834V17.4166H18.3334V16.6666ZM10.0834 15C10.0834 14.4176 9.96665 13.8643 9.75603 13.3609L11.1398 12.782C11.4258 13.4655 11.5834 14.2153 11.5834 15H10.0834ZM10.0834 16.6666V15H11.5834V16.6666H10.0834ZM10.8334 15.9166H11.131L11.131 17.4166L10.8334 17.4166L10.8334 15.9166ZM11.131 15.9166H18.3334V17.4166H11.131V15.9166ZM17.5834 16.6666V16.25H19.0834V16.6666H17.5834ZM17.5834 16.25C17.5834 14.1329 15.8671 12.4166 13.75 12.4166V10.9166C16.6956 10.9166 19.0834 13.3044 19.0834 16.25H17.5834ZM13.75 12.4166C12.6651 12.4166 11.6865 12.8664 10.9882 13.5916L9.90762 12.5513C10.8769 11.5445 12.2408 10.9166 13.75 10.9166V12.4166Z" fill="#58B9FF"/>
<circle cx="20" cy="16" r="4" fill="white"/>
<path d="M20 13V19" stroke="#58B9FF" stroke-width="1.5" stroke-linecap="round" stroke-linejoin="round"/>
<path d="M17 16H23" stroke="#58B9FF" stroke-width="1.5" stroke-linecap="round" stroke-linejoin="round"/>
</svg>
