<svg width="18" height="18" viewBox="0 0 18 18" fill="none" xmlns="http://www.w3.org/2000/svg">
<path d="M3.44702 11.4799L12.7463 2.18056C12.7651 2.17478 12.786 2.16867 12.809 2.16245C12.9392 2.12716 13.1269 2.09049 13.3472 2.08745C13.7728 2.08158 14.3366 2.19808 14.888 2.74944C15.4394 3.3008 15.5559 3.86467 15.55 4.2903C15.547 4.51058 15.5103 4.69822 15.475 4.82848C15.4688 4.85144 15.4627 4.87238 15.4569 4.89114L6.15759 14.1904L3.07739 14.5601L3.44702 11.4799ZM15.4184 5.00057L15.4192 4.9987C15.4186 5.00026 15.4183 5.001 15.4183 5.00088L15.4184 5.00057Z" stroke="#25396F" stroke-width="1.5" stroke-linecap="round"/>
<path d="M10.5112 3.35449L14.1029 6.94615" stroke="#25396F" stroke-width="1.5"/>
</svg>
