<svg width="19" height="18" viewBox="0 0 19 18" fill="none" xmlns="http://www.w3.org/2000/svg">
<path fill-rule="evenodd" clip-rule="evenodd" d="M5.39937 18H13.1993C16.2506 18 18.2998 15.8597 18.2998 12.675V5.32505C18.2998 2.1403 16.2506 0 13.2002 0H5.39937C2.34901 0 0.299805 2.1403 0.299805 5.32505V12.675C0.299805 15.8597 2.34901 18 5.39937 18ZM6.14882 8.09999C4.90804 8.09999 3.89985 7.09043 3.89985 5.84999C3.89985 4.60955 4.90804 3.59999 6.14882 3.59999C7.3887 3.59999 8.3978 4.60955 8.3978 5.84999C8.3978 7.09043 7.3887 8.09999 6.14882 8.09999ZM16.3385 11.6406C16.6399 12.4133 16.4833 13.3421 16.1611 14.1074C15.7792 15.0176 15.048 15.7068 14.1266 16.0077C13.7176 16.1415 13.2886 16.2 12.8605 16.2H5.27556C4.52078 16.2 3.85287 16.0189 3.30534 15.6817C2.96233 15.47 2.9017 14.9814 3.15601 14.6647C3.58137 14.1353 4.00129 13.604 4.42484 13.0681C5.23212 12.0427 5.77604 11.7455 6.38059 12.0065C6.62585 12.1142 6.87202 12.2758 7.12542 12.4467C7.80056 12.9056 8.73907 13.5362 9.97533 12.8517C10.8213 12.3779 11.312 11.5651 11.7393 10.8573L11.7464 10.8455C11.7767 10.7958 11.8067 10.7462 11.8367 10.6967C11.9803 10.4591 12.1219 10.2246 12.2822 10.0087C12.4831 9.73839 13.228 8.89318 14.1927 9.49504C14.8072 9.87399 15.324 10.3867 15.877 10.9356C16.0878 11.1455 16.2381 11.3842 16.3385 11.6406Z" fill="#58B9FF"/>
</svg>
