<svg width="18" height="22" viewBox="0 0 18 22" fill="none" xmlns="http://www.w3.org/2000/svg">
<path d="M9.05254 1.88595C9.36754 1.10445 10.245 0.265953 11.3715 0.577953C12.2565 0.823953 12.831 1.35945 13.161 2.07345C13.467 2.73795 13.542 3.51945 13.557 4.26645C13.572 5.06745 13.404 6.03045 13.2075 6.87195C13.1198 7.24446 13.0223 7.61458 12.915 7.98195H14.9925C15.4588 7.98191 15.9187 8.09056 16.3357 8.29928C16.7526 8.508 17.1152 8.81104 17.3946 9.18435C17.674 9.55766 17.8625 9.99095 17.9452 10.4498C18.0279 10.9087 18.0025 11.3806 17.871 11.828L15.825 18.7969C15.6845 19.275 15.4501 19.7203 15.1355 20.1068C14.8209 20.4933 14.4325 20.8132 13.9928 21.0478C13.5532 21.2824 13.0712 21.427 12.575 21.4733C12.0788 21.5195 11.5784 21.4663 11.103 21.3169L3.06904 18.794C2.63456 18.6576 2.23683 18.4241 1.90598 18.1112C1.57514 17.7983 1.31988 17.4142 1.15954 16.9879L0.379537 14.912C0.131304 14.2513 0.123965 13.5242 0.358809 12.8586C0.593654 12.193 1.05564 11.6316 1.66354 11.273L4.47154 9.61545C4.7545 9.39166 5.01703 9.14318 5.25604 8.87295C5.77204 8.29095 6.48154 7.32045 7.19404 5.80695C7.50154 5.15295 7.75954 4.63695 7.99354 4.17195C8.37304 3.41595 8.69104 2.78595 9.05254 1.88595ZM5.27854 10.88C5.27013 10.8851 5.26163 10.8901 5.25304 10.895L2.42554 12.566C2.12159 12.7453 1.8906 13.026 1.77317 13.3588C1.65575 13.6916 1.65942 14.0551 1.78354 14.3855L2.56354 16.4615C2.64378 16.6746 2.77153 16.8667 2.93709 17.0232C3.10264 17.1797 3.30166 17.2964 3.51904 17.3645L11.55 19.8875C11.8355 19.9773 12.136 20.0094 12.434 19.9817C12.732 19.954 13.0214 19.8671 13.2854 19.7262C13.5494 19.5852 13.7827 19.3931 13.9715 19.1609C14.1603 18.9287 14.3009 18.6611 14.385 18.374L16.4295 11.405C16.4953 11.1812 16.508 10.9452 16.4666 10.7157C16.4252 10.4862 16.3309 10.2695 16.1911 10.0829C16.0513 9.89618 15.8699 9.74468 15.6613 9.64037C15.4528 9.53606 15.2227 9.48182 14.9895 9.48195H11.8905C11.7705 9.48188 11.6523 9.45302 11.5458 9.3978C11.4393 9.34257 11.3475 9.26259 11.2783 9.16457C11.2091 9.06655 11.1644 8.95336 11.148 8.83449C11.1316 8.71562 11.144 8.59455 11.184 8.48145C11.334 8.05845 11.562 7.32645 11.748 6.52995C11.937 5.72295 12.0705 4.90695 12.0585 4.29495C12.0435 3.59145 11.97 3.07095 11.799 2.70045C11.652 2.37945 11.4225 2.14845 10.971 2.02395C10.9065 2.00595 10.83 2.01045 10.731 2.07495C10.6018 2.16723 10.5027 2.29559 10.446 2.44395C10.1006 3.2866 9.71767 4.11342 9.29854 4.92195C9.06604 5.38395 8.82154 5.87295 8.55304 6.44445C7.78204 8.08395 6.99304 9.17595 6.37804 9.86745C6.07204 10.2125 5.81104 10.4585 5.61904 10.622C5.52153 10.7048 5.42043 10.7834 5.31604 10.8575L5.29204 10.8725L5.28454 10.8785L5.27854 10.88Z" fill="#25396F" fill-opacity="0.7"/>
</svg>
