<svg width="18" height="22" viewBox="0 0 18 22" fill="none" xmlns="http://www.w3.org/2000/svg">
<path d="M11.37 0.577946C10.245 0.264446 9.36604 1.10445 9.05254 1.88595C8.69254 2.78595 8.37304 3.41595 7.99354 4.17195C7.75954 4.63695 7.50154 5.15295 7.19404 5.80695C6.48154 7.32045 5.77204 8.29094 5.25454 8.87294C5.06647 9.08845 4.86347 9.29045 4.64704 9.47745C4.59789 9.51912 4.54736 9.55914 4.49554 9.59744L4.47154 9.61545L1.66354 11.2729C1.05564 11.6316 0.593654 12.193 0.358809 12.8586C0.123965 13.5242 0.131304 14.2512 0.379537 14.9119L1.15954 16.9879C1.31988 17.4142 1.57514 17.7983 1.90598 18.1112C2.23683 18.4241 2.63456 18.6576 3.06904 18.7939L11.103 21.3184C11.5785 21.4678 12.079 21.5209 12.5753 21.4746C13.0715 21.4283 13.5536 21.2835 13.9932 21.0487C14.4329 20.8139 14.8213 20.4939 15.1358 20.1073C15.4504 19.7206 15.6847 19.2752 15.825 18.7969L17.871 11.8279C18.0026 11.3805 18.0279 10.9085 17.9452 10.4495C17.8624 9.99046 17.6737 9.55708 17.3941 9.18374C17.1146 8.8104 16.7518 8.50739 16.3347 8.29877C15.9175 8.09015 15.4575 7.98167 14.991 7.98195H12.915C13.014 7.64294 13.1145 7.26495 13.2075 6.87195C13.404 6.03045 13.572 5.06745 13.5555 4.26645C13.542 3.51945 13.4655 2.73645 13.1595 2.07345C12.831 1.35945 12.2565 0.823946 11.3715 0.577946H11.37Z" fill="#A974FF"/>
</svg>
