<svg width="16" height="18" viewBox="0 0 16 18" fill="none" xmlns="http://www.w3.org/2000/svg">
<path fill-rule="evenodd" clip-rule="evenodd" d="M4.88325 12.951H9.73077C10.0961 12.951 10.3991 12.645 10.3991 12.276C10.3991 11.907 10.0961 11.61 9.73077 11.61H4.88325C4.5179 11.61 4.21493 11.907 4.21493 12.276C4.21493 12.645 4.5179 12.951 4.88325 12.951ZM7.89513 7.11H4.88325C4.5179 7.11 4.21493 7.416 4.21493 7.785C4.21493 8.154 4.5179 8.451 4.88325 8.451H7.89513C8.26048 8.451 8.56345 8.154 8.56345 7.785C8.56345 7.416 8.26048 7.11 7.89513 7.11ZM14.2543 6.32305C14.4637 6.32063 14.6918 6.318 14.899 6.318C15.1218 6.318 15.3 6.498 15.3 6.723V13.959C15.3 16.191 13.5089 18 11.299 18H4.20594C1.88911 18 0 16.101 0 13.761V4.059C0 1.827 1.8 0 4.01881 0H8.77723C9.00891 0 9.18713 0.189 9.18713 0.414V3.312C9.18713 4.959 10.5327 6.309 12.1634 6.318C12.5443 6.318 12.8801 6.32085 13.1739 6.32334C13.4025 6.32528 13.6058 6.327 13.7851 6.327C13.912 6.327 14.0764 6.3251 14.2543 6.32305ZM14.4999 5.0094C13.7675 5.0121 12.904 5.0094 12.2829 5.0031C11.2974 5.0031 10.4856 4.1832 10.4856 3.1878V0.815396C10.4856 0.427496 10.9516 0.234896 11.2181 0.514796C11.7007 1.02164 12.3641 1.7185 13.0243 2.41203C13.6817 3.10268 14.3361 3.79002 14.8056 4.2831C15.0658 4.5558 14.8751 5.0085 14.4999 5.0094Z" fill="#58B9FF"/>
</svg>
