<svg width="16" height="16" viewBox="0 0 16 16" fill="none" xmlns="http://www.w3.org/2000/svg">
<circle cx="8.00016" cy="8.00016" r="2.66667" stroke="#25396F" stroke-width="1.5"/>
<path d="M6.53073 1.78567C7.1959 0.675641 8.80442 0.675641 9.46959 1.78567V1.78567C9.85751 2.43303 10.6234 2.75026 11.3554 2.56681V2.56681C12.6107 2.25225 13.7481 3.38964 13.4335 4.64489V4.64489C13.2501 5.37695 13.5673 6.14282 14.2147 6.53073V6.53073C15.3247 7.1959 15.3247 8.80442 14.2147 9.46959V9.46959C13.5673 9.85751 13.2501 10.6234 13.4335 11.3554V11.3554C13.7481 12.6107 12.6107 13.7481 11.3554 13.4335V13.4335C10.6234 13.2501 9.85751 13.5673 9.46959 14.2147V14.2147C8.80442 15.3247 7.1959 15.3247 6.53073 14.2147V14.2147C6.14282 13.5673 5.37695 13.2501 4.64489 13.4335V13.4335C3.38964 13.7481 2.25225 12.6107 2.56681 11.3554V11.3554C2.75026 10.6234 2.43303 9.85751 1.78567 9.46959V9.46959C0.675641 8.80442 0.675641 7.1959 1.78567 6.53073V6.53073C2.43303 6.14282 2.75026 5.37695 2.56681 4.64489V4.64489C2.25225 3.38964 3.38964 2.25225 4.6449 2.56681V2.56681C5.37695 2.75026 6.14282 2.43303 6.53073 1.78567V1.78567Z" stroke="#25396F" stroke-width="1.5"/>
</svg>
