<svg width="24" height="24" viewBox="0 0 24 24" fill="none" xmlns="http://www.w3.org/2000/svg">
<circle cx="12" cy="7" r="3" stroke="#14142B" stroke-width="2"/>
<circle cx="4" cy="10" r="2" stroke="#14142B" stroke-width="2"/>
<circle cx="20" cy="10" r="2" stroke="#14142B" stroke-width="2"/>
<path d="M7 18C7 15.2386 9.23858 13 12 13V13C14.7614 13 17 15.2386 17 18V20H7V18Z" stroke="#14142B" stroke-width="2"/>
<path d="M7.27349 16.3648L8.21855 16.6917L8.39498 16.1817L8.06545 15.7543L7.27349 16.3648ZM7 20V21H8V20H7ZM1 20H0V21H1V20ZM8 18C8 17.5401 8.07721 17.1004 8.21855 16.6917L6.32843 16.0379C6.11532 16.654 6 17.3146 6 18H8ZM8 20V18H6V20H8ZM7 19H6.5V21H7V19ZM6.5 19H1V21H6.5V19ZM2 20V18.5H0V20H2ZM2 18.5C2 17.1193 3.11929 16 4.5 16V14C2.01472 14 0 16.0147 0 18.5H2ZM4.5 16C5.30601 16 6.02274 16.3803 6.48154 16.9754L8.06545 15.7543C7.24429 14.6892 5.95241 14 4.5 14V16Z" fill="#14142B"/>
<path d="M16.7265 16.3648L15.7814 16.6917L15.605 16.1817L15.9346 15.7543L16.7265 16.3648ZM17 20V21H16V20H17ZM23 20H24V21H23V20ZM16 18C16 17.5401 15.9228 17.1004 15.7814 16.6917L17.6716 16.0379C17.8847 16.654 18 17.3146 18 18H16ZM16 20V18H18V20H16ZM17 19H17.5V21H17V19ZM17.5 19H23V21H17.5V19ZM22 20V18.5H24V20H22ZM22 18.5C22 17.1193 20.8807 16 19.5 16V14C21.9853 14 24 16.0147 24 18.5H22ZM19.5 16C18.694 16 17.9773 16.3803 17.5185 16.9754L15.9346 15.7543C16.7557 14.6892 18.0476 14 19.5 14V16Z" fill="#14142B"/>
</svg>
