<svg width="24" height="24" viewBox="0 0 24 24" fill="none" xmlns="http://www.w3.org/2000/svg">
<path d="M10.6711 8.50655C10.5652 8.44032 10.4434 8.40367 10.3185 8.40039C10.1936 8.39711 10.0701 8.42732 9.96078 8.4879C9.85148 8.54848 9.76039 8.6372 9.69697 8.74487C9.63355 8.85254 9.6001 8.97522 9.6001 9.10018V16.3105C9.60008 16.437 9.63435 16.5612 9.69926 16.6698C9.76418 16.7784 9.85732 16.8674 9.96877 16.9273C10.0802 16.9871 10.2058 17.0157 10.3322 17.0099C10.4586 17.0041 10.581 16.9642 10.6865 16.8943L16.2868 13.1856C16.3843 13.1209 16.4641 13.0329 16.5188 12.9295C16.5735 12.8261 16.6014 12.7107 16.6 12.5937C16.5987 12.4768 16.568 12.362 16.5108 12.26C16.4536 12.1579 16.3718 12.0718 16.2728 12.0095L10.6725 8.50655H10.6711Z" fill="#58B9FF"/>
<mask id="path-2-inside-1" fill="white">
<path d="M5.57847 3.6001C4.73546 3.6001 3.92698 3.93498 3.33088 4.53108C2.73479 5.12718 2.3999 5.93566 2.3999 6.77867V18.2215C2.3999 19.0645 2.73479 19.873 3.33088 20.4691C3.92698 21.0652 4.73546 21.4001 5.57847 21.4001H19.5642C20.4072 21.4001 21.2157 21.0652 21.8118 20.4691C22.4079 19.873 22.7428 19.0645 22.7428 18.2215V6.77867C22.7428 5.93566 22.4079 5.12718 21.8118 4.53108C21.2157 3.93498 20.4072 3.6001 19.5642 3.6001H5.57847ZM3.67133 6.77867C3.67133 6.27286 3.87226 5.78777 4.22992 5.43011C4.58758 5.07246 5.07267 4.87153 5.57847 4.87153H19.5642C20.07 4.87153 20.5551 5.07246 20.9127 5.43011C21.2704 5.78777 21.4713 6.27286 21.4713 6.77867V18.2215C21.4713 18.7273 21.2704 19.2124 20.9127 19.5701C20.5551 19.9277 20.07 20.1287 19.5642 20.1287H5.57847C5.07267 20.1287 4.58758 19.9277 4.22992 19.5701C3.87226 19.2124 3.67133 18.7273 3.67133 18.2215V6.77867Z"/>
</mask>
<path d="M5.57847 3.6001C4.73546 3.6001 3.92698 3.93498 3.33088 4.53108C2.73479 5.12718 2.3999 5.93566 2.3999 6.77867V18.2215C2.3999 19.0645 2.73479 19.873 3.33088 20.4691C3.92698 21.0652 4.73546 21.4001 5.57847 21.4001H19.5642C20.4072 21.4001 21.2157 21.0652 21.8118 20.4691C22.4079 19.873 22.7428 19.0645 22.7428 18.2215V6.77867C22.7428 5.93566 22.4079 5.12718 21.8118 4.53108C21.2157 3.93498 20.4072 3.6001 19.5642 3.6001H5.57847ZM3.67133 6.77867C3.67133 6.27286 3.87226 5.78777 4.22992 5.43011C4.58758 5.07246 5.07267 4.87153 5.57847 4.87153H19.5642C20.07 4.87153 20.5551 5.07246 20.9127 5.43011C21.2704 5.78777 21.4713 6.27286 21.4713 6.77867V18.2215C21.4713 18.7273 21.2704 19.2124 20.9127 19.5701C20.5551 19.9277 20.07 20.1287 19.5642 20.1287H5.57847C5.07267 20.1287 4.58758 19.9277 4.22992 19.5701C3.87226 19.2124 3.67133 18.7273 3.67133 18.2215V6.77867Z" fill="#58B9FF"/>
<path d="M2.3999 6.77867H0.899902H2.3999ZM5.57847 4.87153V3.37153V4.87153ZM21.4713 18.2215H22.9713H21.4713ZM19.5642 20.1287V21.6287V20.1287ZM5.57847 20.1287V21.6287V20.1287ZM5.57847 2.1001C4.33764 2.1001 3.14763 2.59302 2.27022 3.47042L4.39154 5.59174C4.70634 5.27695 5.13329 5.1001 5.57847 5.1001V2.1001ZM2.27022 3.47042C1.39282 4.34782 0.899902 5.53783 0.899902 6.77867H3.8999C3.8999 6.33348 4.07675 5.90653 4.39154 5.59174L2.27022 3.47042ZM0.899902 6.77867V18.2215H3.8999V6.77867H0.899902ZM0.899902 18.2215C0.899902 19.4624 1.39282 20.6524 2.27022 21.5298L4.39154 19.4085C4.07675 19.0937 3.8999 18.6667 3.8999 18.2215H0.899902ZM2.27022 21.5298C3.14763 22.4072 4.33764 22.9001 5.57847 22.9001V19.9001C5.13329 19.9001 4.70634 19.7232 4.39154 19.4085L2.27022 21.5298ZM5.57847 22.9001H19.5642V19.9001H5.57847V22.9001ZM19.5642 22.9001C20.805 22.9001 21.995 22.4072 22.8724 21.5298L20.7511 19.4085C20.4363 19.7232 20.0094 19.9001 19.5642 19.9001V22.9001ZM22.8724 21.5298C23.7498 20.6524 24.2428 19.4624 24.2428 18.2215H21.2428C21.2428 18.6667 21.0659 19.0937 20.7511 19.4085L22.8724 21.5298ZM24.2428 18.2215V6.77867H21.2428V18.2215H24.2428ZM24.2428 6.77867C24.2428 5.53783 23.7498 4.34782 22.8724 3.47042L20.7511 5.59174C21.0659 5.90653 21.2428 6.33348 21.2428 6.77867H24.2428ZM22.8724 3.47042C21.995 2.59302 20.805 2.1001 19.5642 2.1001V5.1001C20.0094 5.1001 20.4363 5.27695 20.7511 5.59174L22.8724 3.47042ZM19.5642 2.1001H5.57847V5.1001H19.5642V2.1001ZM5.17133 6.77867C5.17133 6.67069 5.21423 6.56713 5.29058 6.49078L3.16926 4.36945C2.5303 5.00842 2.17133 5.87504 2.17133 6.77867H5.17133ZM5.29058 6.49078C5.36693 6.41442 5.47049 6.37153 5.57847 6.37153V3.37153C4.67484 3.37153 3.80822 3.73049 3.16926 4.36945L5.29058 6.49078ZM5.57847 6.37153H19.5642V3.37153H5.57847V6.37153ZM19.5642 6.37153C19.6722 6.37153 19.7757 6.41442 19.8521 6.49078L21.9734 4.36945C21.3344 3.73049 20.4678 3.37153 19.5642 3.37153V6.37153ZM19.8521 6.49078C19.9284 6.56713 19.9713 6.67069 19.9713 6.77867H22.9713C22.9713 5.87504 22.6124 5.00842 21.9734 4.36945L19.8521 6.49078ZM19.9713 6.77867V18.2215H22.9713V6.77867H19.9713ZM19.9713 18.2215C19.9713 18.3295 19.9284 18.4331 19.8521 18.5094L21.9734 20.6307C22.6124 19.9918 22.9713 19.1252 22.9713 18.2215H19.9713ZM19.8521 18.5094C19.7757 18.5858 19.6722 18.6287 19.5642 18.6287V21.6287C20.4678 21.6287 21.3344 21.2697 21.9734 20.6307L19.8521 18.5094ZM19.5642 18.6287H5.57847V21.6287H19.5642V18.6287ZM5.57847 18.6287C5.47049 18.6287 5.36693 18.5858 5.29058 18.5094L3.16926 20.6307C3.80822 21.2697 4.67484 21.6287 5.57847 21.6287V18.6287ZM5.29058 18.5094C5.21423 18.4331 5.17133 18.3295 5.17133 18.2215H2.17133C2.17133 19.1252 2.5303 19.9918 3.16926 20.6307L5.29058 18.5094ZM5.17133 18.2215V6.77867H2.17133V18.2215H5.17133Z" fill="#58B9FF" mask="url(#path-2-inside-1)"/>
</svg>
