<svg width="16" height="18" viewBox="0 0 16 18" fill="none" xmlns="http://www.w3.org/2000/svg">
<path fill-rule="evenodd" clip-rule="evenodd" d="M8.10709 11.8957H7.79235C5.62931 11.8957 3.87603 10.1634 3.87603 8.0283V3.86736C3.87603 1.73136 5.62931 0 7.79235 0H8.10709C10.2701 0 12.0243 1.73136 12.0243 3.86736V8.0283C12.0243 10.1634 10.2701 11.8957 8.10709 11.8957ZM13.8561 7.90457C13.8561 7.42847 14.2467 7.04362 14.728 7.04362C15.2092 7.04362 15.5998 7.42847 15.5998 7.90457C15.5998 11.778 12.6303 14.9764 8.82208 15.406V17.139C8.82208 17.6143 8.4315 18 7.95024 18C7.46811 18 7.0784 17.6143 7.0784 17.139V15.406C3.26931 14.9764 0.299805 11.778 0.299805 7.90457C0.299805 7.42847 0.690391 7.04362 1.17165 7.04362C1.65291 7.04362 2.04349 7.42847 2.04349 7.90457C2.04349 11.1202 4.69303 13.7366 7.95024 13.7366C11.2066 13.7366 13.8561 11.1202 13.8561 7.90457Z" fill="#58B9FF"/>
</svg>
